<?xml version="1.0" encoding="UTF-8"?>
<svg version="1.1" xmlns="http://www.w3.org/2000/svg" width="68" height="27">
<path d="M0 0 C22.44 0 44.88 0 68 0 C68 8.91 68 17.82 68 27 C45.56 27 23.12 27 0 27 C0 18.09 0 9.18 0 0 Z " fill="#282922" transform="translate(0,0)"/>
<path d="M0 0 C2 1.0625 2 1.0625 3 3 C3.3898913 6.57400356 3.37020241 9.09763163 2 12.4375 C-0.71070476 14.5552381 -2.74871362 14.57130492 -6.125 14.37890625 C-8 14 -8 14 -10 12.4375 C-11.37020241 9.09763163 -11.3898913 6.57400356 -11 3 C-8.82986072 -1.20464485 -4.15736573 -0.61494368 0 0 Z " fill="#E9B54A" transform="translate(38,7)"/>
<path d="M0 0 C2 1.0625 2 1.0625 3 3 C3.3898913 6.57400356 3.37020241 9.09763163 2 12.4375 C-0.71070476 14.5552381 -2.74871362 14.57130492 -6.125 14.37890625 C-8 14 -8 14 -10 12.4375 C-11.37020241 9.09763163 -11.3898913 6.57400356 -11 3 C-8.82986072 -1.20464485 -4.15736573 -0.61494368 0 0 Z " fill="#E06459" transform="translate(16,7)"/>
<path d="M0 0 C0.99 0.66 1.98 1.32 3 2 C3.39138913 5.08218937 3.63718306 7.05453113 3 10 C0.875 12.0625 0.875 12.0625 -2 13 C-5.13581361 12.87456746 -7.18335071 12.48998958 -9.875 10.875 C-11.71653772 7.80577047 -11.49664155 5.47649087 -11 2 C-7.3805796 -1.40651332 -4.64233057 -1.31196299 0 0 Z " fill="#5EC051" transform="translate(60,8)"/>
</svg>
